<svg width="221" height="22" viewBox="0 0 221 22" fill="none" xmlns="http://www.w3.org/2000/svg"><g clip-path="url(#a)"><title>Tom's Hardware</title><path fill-rule="evenodd" clip-rule="evenodd" d="M81.263.257v8.77H74.01V.256h-4.17V21.69h4.17v-8.965h7.254v8.965h4.18V.257h-4.18ZM96.894 6.54l2.62 7.797h-5.338l2.718-7.797ZM95.13.266l-7.798 21.423h4.367l1.292-3.787h7.61l1.257 3.787h4.367L98.418.266H95.13ZM136.64 5.319a3.75 3.75 0 0 0-3.128-1.328h-3.164v13.965h3.164a3.724 3.724 0 0 0 3.128-1.328c.775-.954.9-2.496.9-5.748 0-3.253-.125-4.599-.9-5.57m2.923 14.32a7.817 7.817 0 0 1-5.686 2.05h-7.735V.266h7.735a7.789 7.789 0 0 1 5.677 2.04c2.406 2.407 2.121 5.348 2.121 8.574s.249 6.345-2.166 8.76M164.587.257l-3.342 13.51-3.912-13.51h-3.12l-3.912 13.51-3.315-13.51h-4.349l5.713 21.432h3.484l3.948-13.002 3.939 13.002h3.484L168.953.257h-4.366ZM176.582 6.54l2.62 7.797h-5.321l2.709-7.797h-.008ZM174.835.266l-7.798 21.423h4.367l1.292-3.787h7.611l1.256 3.787h4.367L178.132.266h-3.297ZM195.955 4h-3.93v5.65h3.939a2.791 2.791 0 0 0 3.03-2.54c0-.098.009-.196.009-.285a2.797 2.797 0 0 0-3.039-2.834m3.253 17.69-4.18-8.547h-3.003v8.555h-4.179V.266h8.394c4.367 0 6.951 2.976 6.951 6.559a5.762 5.762 0 0 1-3.912 5.623l4.777 9.232h-4.857.009ZM206.756.257V21.69h14.116v-3.733h-9.927v-5.214h8.457V9.026h-8.457V3.991h9.927V.257h-14.116Z" fill="#D9383B"/><path d="M119.574 12.448a5.762 5.762 0 0 0 3.912-5.623 6.31 6.31 0 0 0-4.812-6.283V4.99c.41.508.633 1.14.624 1.791a2.797 2.797 0 0 1-2.754 2.843c-.098 0-.196 0-.294-.009h-2.656l.09 3.485h1.648l4.18 8.546h4.848l-4.777-9.197h-.009Z" fill="#D9383B"/><path fill-rule="evenodd" clip-rule="evenodd" d="M7.03 21.556a4.227 4.227 0 0 1-4.51-3.912 3.69 3.69 0 0 1 0-.544V9.383H.873v-2.95h1.649V1.817h3.92v4.616H9.16v2.95H6.442v7.476c0 .9.428 1.408 1.345 1.408H9.16v3.342l-2.13-.044v-.01ZM19.595 9.98a2.447 2.447 0 0 0-1.827-.687 2.423 2.423 0 0 0-1.79.687c-.803.81-.892 2.147-.892 3.77 0 1.621.09 2.985.891 3.796a2.354 2.354 0 0 0 1.791.686 2.446 2.446 0 0 0 1.827-.686c.811-.811.9-2.228.9-3.797 0-1.568-.089-2.958-.9-3.77Zm3.021 9.838a6.446 6.446 0 0 1-4.848 1.916 6.38 6.38 0 0 1-4.812-1.916c-1.408-1.462-1.755-3.253-1.755-6.069s.356-4.58 1.755-6.042a6.38 6.38 0 0 1 4.812-1.916 6.459 6.459 0 0 1 4.848 1.916c1.408 1.47 1.756 3.235 1.756 6.042s-.357 4.616-1.756 6.069ZM44.86 21.556v-9.447a2.594 2.594 0 1 0-5.16-.561c-.018.16-.018.312 0 .472v9.509h-3.886v-9.42a2.597 2.597 0 0 0-2.343-2.824 2.597 2.597 0 0 0-2.825 2.825v9.419h-3.904V5.934h3.797v1.47a5.431 5.431 0 0 1 3.885-1.613 4.833 4.833 0 0 1 4.135 1.97 5.9 5.9 0 0 1 4.643-1.97 5.417 5.417 0 0 1 3.832 1.381 5.856 5.856 0 0 1 1.702 4.456v9.954l-3.877-.035v.009ZM49.957.257v6.8l4.064-3.075V.257h-4.064ZM58.574 21.734c-2.45 0-4.67-.267-6.683-2.228l2.54-2.549a5.663 5.663 0 0 0 4.152 1.47c1.346 0 2.754-.445 2.754-1.612 0-.767-.428-1.32-1.649-1.435l-2.45-.232c-2.816-.267-4.545-1.497-4.545-4.366 0-3.235 2.843-4.973 6.015-4.973 2.433 0 4.456.428 5.953 1.827l-2.353 2.406a5.374 5.374 0 0 0-3.618-1.043c-1.56 0-2.228.713-2.228 1.497 0 .57.232 1.23 1.613 1.346l2.451.25c3.083.303 4.634 1.933 4.634 4.58 0 3.44-2.932 5.08-6.603 5.08" fill="#221F1F"/><path d="M117.15 1.166c0-.499-.401-.9-.9-.9h-.713a.706.706 0 0 0-.704.704s0 .499-.882.499-1.408-1.194-1.987-1.194h-2.362c-1.114 0-4.42-.32-7.548 4.75l.526.499a7.565 7.565 0 0 1 4.972-1.996s1.114.089 1.114 1.114v.213l-.49 16.79h4.18l-.41-16.968c.009-.552.837-1.15 1.8-1.15.962 0 1.06.188 1.096.455 0 .392.321.704.704.704H116.25c.49 0 .9-.392.9-.882V1.167Z" fill="#D9383B"/></g><defs><clipPath id="a"><path fill="#fff" transform="translate(.872 .257)" d="M0 0h220v21.486H0z"/></clipPath></defs></svg>